# xmcd
#
# Track frame offsets:
#	150
#	26905
#	49330
#	75067
#	94177
#	120217
#	140612
#	160800
#	181065
#	200725
#
# Disc length: 2980 seconds
#
# Revision: 1
# Processed by: cddbd v1.5.1PL0 Copyright (c) Steve Scherf et al.
# Submitted via: CDex 1.50Beta5
#
DISCID=7a0ba20a
DTITLE=山根康広 - Mr.FRIENDS
DYEAR=1997
DGENRE=
TTITLE0=Mr.FRIENDS
TTITLE1=CATMAN BLUES
TTITLE2=NINE
TTITLE3=少年
TTITLE4=ALWAYSII
TTITLE5=今日は雨
TTITLE6=EASY-GOING
TTITLE7=She’s My Lady
TTITLE8=REACH FOR THE STAR
TTITLE9=WALK WITH YOU
EXTD=
EXTT0=
EXTT1=
EXTT2=
EXTT3=
EXTT4=
EXTT5=
EXTT6=
EXTT7=
EXTT8=
EXTT9=
PLAYORDER=
